# xmcd
# Track frame offsets:
# 150
# 8925
# 20747
# 30755
# 43530
# 53305
# 62955
# 74025
# 88230
# 98300
# 108247
# 119475
#
# Disc length: 1723 seconds
# Revision: 0
# Processed by: cddbd v1.4PL0 Copyright (c) Steve Scherf et al.
# Submitted via: VisiTrax 2.9.5.180 - For more info visit www.synapsa.com
#
DISCID=9406b90c
DTITLE=Green - Mr. Nashville sound
DYEAR=1993
DGENRE=
TTITLE0=Ride ride ride
TTITLE1=There goes my everything
TTITLE2=Turtle neck
TTITLE3=My elusive dreams No another time
TTITLE4=No another time
TTITLE5=Swarmin'
TTITLE6=Promises promises
TTITLE7=Woman woman
TTITLE8=Mr. Nashville sound
TTITLE9=Too much of ou
TTITLE10=In the misty moonlight
TTITLE11=Loose ends
EXTD=
EXTT0=
EXTT1=
EXTT2=
EXTT3=
EXTT4=
EXTT5=
EXTT6=
EXTT7=
EXTT8=
EXTT9=
EXTT10=
EXTT11=
PLAYORDER=
